<svg xmlns="http://www.w3.org/2000/svg" xmlns:xlink="http://www.w3.org/1999/xlink" version="1.0" x="0" y="0" width="2400" height="880.399745834801" viewBox="52.929731903076174 82.0547395324707 234.14053619384765 85.89052856445312" preserveAspectRatio="xMidYMid meet" color-interpolation-filters="sRGB"><g><defs><linearGradient id="92" x1="0%" y1="0%" x2="100%" y2="0%"><stop offset="0%" stop-color="#fa71cd"></stop> <stop offset="100%" stop-color="#9b59b6"></stop></linearGradient><linearGradient id="93" x1="0%" y1="0%" x2="100%" y2="0%"><stop offset="0%" stop-color="#f9d423"></stop> <stop offset="100%" stop-color="#f83600"></stop></linearGradient><linearGradient id="94" x1="0%" y1="0%" x2="100%" y2="0%"><stop offset="0%" stop-color="#0064d2"></stop> <stop offset="100%" stop-color="#1cb0f6"></stop></linearGradient><linearGradient id="95" x1="0%" y1="0%" x2="100%" y2="0%"><stop offset="0%" stop-color="#f00978"></stop> <stop offset="100%" stop-color="#3f51b1"></stop></linearGradient><linearGradient id="96" x1="0%" y1="0%" x2="100%" y2="0%"><stop offset="0%" stop-color="#7873f5"></stop> <stop offset="100%" stop-color="#ec77ab"></stop></linearGradient><linearGradient id="97" x1="0%" y1="0%" x2="100%" y2="0%"><stop offset="0%" stop-color="#f9d423"></stop> <stop offset="100%" stop-color="#e14fad"></stop></linearGradient><linearGradient id="98" x1="0%" y1="0%" x2="100%" y2="0%"><stop offset="0%" stop-color="#009efd"></stop> <stop offset="100%" stop-color="#2af598"></stop></linearGradient><linearGradient id="99" x1="0%" y1="0%" x2="100%" y2="0%"><stop offset="0%" stop-color="#ffcc00"></stop> <stop offset="100%" stop-color="#00b140"></stop></linearGradient><linearGradient id="100" x1="0%" y1="0%" x2="100%" y2="0%"><stop offset="0%" stop-color="#d51007"></stop> <stop offset="100%" stop-color="#ff8177"></stop></linearGradient><linearGradient id="102" x1="0%" y1="0%" x2="100%" y2="0%"><stop offset="0%" stop-color="#a2b6df"></stop> <stop offset="100%" stop-color="#0c3483"></stop></linearGradient><linearGradient id="103" x1="0%" y1="0%" x2="100%" y2="0%"><stop offset="0%" stop-color="#7ac5d8"></stop> <stop offset="100%" stop-color="#eea2a2"></stop></linearGradient><linearGradient id="104" x1="0%" y1="0%" x2="100%" y2="0%"><stop offset="0%" stop-color="#00ecbc"></stop> <stop offset="100%" stop-color="#007adf"></stop></linearGradient><linearGradient id="105" x1="0%" y1="0%" x2="100%" y2="0%"><stop offset="0%" stop-color="#b88746"></stop> <stop offset="100%" stop-color="#fdf5a6"></stop></linearGradient></defs><g fill="#1891db" class="iconblsvg-g iconsvg" transform="translate(55.22522735595703,84.3502311706543)"><g class="tp-name"><g transform="translate(0, 39.53031054947728)"><g transform="scale(1)"><path d="M34.26-9.22L34.26-0.66Q21.94 0.66 12.52 0.66L12.52 0.66Q8.04 0.66 5.34-2.04 2.64-4.74 2.64-9.22L2.64-9.22 2.64-24.38Q2.64-29.32 5.44-32.12 8.24-34.92 13.18-34.92L13.18-34.92 34.26-34.92 34.26-26.03 16.8-26.03Q14.17-26.03 14.17-23.39L14.17-23.39 14.17-10.54Q14.17-9.55 14.83-8.9 15.48-8.24 16.47-8.24L16.47-8.24Q22.4-8.24 34.26-9.22L34.26-9.22ZM55.35-11.2L62.93-34.92 75.12-34.92 61.94 0 48.76 0 35.58-34.92 47.77-34.92 55.35-11.2Z" transform="translate(-2.640000104904175, 35.58000183105469)"></path></g></g> <g transform="translate(72.4800033569336, 0)"><g><g fill="#1891db" class="imagesvg"><rect fill="#1891db" fill-opacity="0" stroke-width="2" x="0" y="0" width="81.29953488372094" height="81.29953488372094" class="image-rect"></rect> <svg viewBox="0 0 60 64.09160827209024" x="0" y="0" width="81.29953488372094" height="81.29953488372094" class="image-svg-svg bn" style="overflow: visible;"><g hollow-target="iconBnFill" mask="url(#48719d02-b088-429e-9cbd-e2602cd48d53)"><g><svg xmlns="http://www.w3.org/2000/svg" viewBox="0 0 132.86 141.92" style="overflow: visible;" width="60" height="64.09160827209024" x="0" y="0" filtersec="colorsf1468594143"><g transform="scale(1, 1) skewX(0)"><path fill="#cfe2f3" opacity=".6" d="M19 0h113.86v113.86H19z"></path><path fill="#cfe2f3" opacity=".8" d="M9.73 18.53h113.86v113.86H9.73z"></path><path fill="#1891db" d="M.93 123.13H0V8.8h114.32v.93H.93v113.4zM132.84 141.92H18.52V141h113.39V27.6h.93v114.32z"></path></g></svg></g> <g filter="url(#colors5582119121)"><svg xmlns="http://www.w3.org/2000/svg" xmlns:xlink="http://www.w3.org/1999/xlink" viewBox="0.004374980926513672 0.004062652587890625 50.40999984741211 50.40999984741211" width="40" height="42.72774" x="10" y="10.681934136045122" class="image-svg-letter"><path transform="translate(-3.515625 50.4140625)" d="M3.52-50.41L3.52-47.18L37.44-47.18L3.69-13.46L3.69 0L53.93 0L53.93-3.23L20.29-3.23L53.93-36.88L53.93-50.41ZM6.93-12.13L41.98-47.18L48.55-47.18L6.93-5.59ZM50.70-44.79L50.70-38.21L15.71-3.23L9.14-3.23Z"></path></svg></g></g><mask id="48719d02-b088-429e-9cbd-e2602cd48d53"><g fill="white"><svg xmlns="http://www.w3.org/2000/svg" viewBox="0 0 132.86 141.92" style="overflow: visible;" width="60" height="64.09160827209024" x="0" y="0" filtersec="colorsf1468594143"><g transform="scale(1, 1) skewX(0)"><path d="M19 0h113.86v113.86H19z"></path><path d="M9.73 18.53h113.86v113.86H9.73z"></path><path d="M.93 123.13H0V8.8h114.32v.93H.93v113.4zM132.84 141.92H18.52V141h113.39V27.6h.93v114.32z"></path></g></svg></g> <g fill="black"><svg xmlns="http://www.w3.org/2000/svg" xmlns:xlink="http://www.w3.org/1999/xlink" viewBox="0.004374980926513672 0.004062652587890625 50.40999984741211 50.40999984741211" width="40" height="42.72774" x="10" y="10.681934136045122" class="image-svg-letter"><path transform="translate(-3.515625 50.4140625)" d="M3.52-50.41L3.52-47.18L37.44-47.18L3.69-13.46L3.69 0L53.93 0L53.93-3.23L20.29-3.23L53.93-36.88L53.93-50.41ZM6.93-12.13L41.98-47.18L48.55-47.18L6.93-5.59ZM50.70-44.79L50.70-38.21L15.71-3.23L9.14-3.23Z"></path></svg></g></mask></svg> <defs><filter id="colors5582119121"><feColorMatrix type="matrix" values="0 0 0 0 0.09375  0 0 0 0 0.56640625  0 0 0 0 0.85546875  0 0 0 1 0" class="icon-feColorMatrix "></feColorMatrix></filter> <filter id="colorsf1468594143"><feColorMatrix type="matrix" values="0 0 0 0 0.99609375  0 0 0 0 0.99609375  0 0 0 0 0.99609375  0 0 0 1 0" class="icon-fecolormatrix"></feColorMatrix></filter> <filter id="colorsb1313705932"><feColorMatrix type="matrix" values="0 0 0 0 0  0 0 0 0 0  0 0 0 0 0  0 0 0 1 0" class="icon-fecolormatrix"></feColorMatrix></filter></defs></g></g></g> <g fill="#cfe2f3" transform="translate(153.779541015625, 39.53031054947728)"><g transform="scale(1)"><path d="M22.73-27.34L16.8-27.34Q14.17-27.34 14.17-24.71L14.17-24.71 14.17-21.09 25.37-21.09 25.37-24.71Q25.37-27.34 22.73-27.34L22.73-27.34ZM35.58-8.9L35.58-0.66Q22.86 0.66 12.52 0.66L12.52 0.66Q8.04 0.66 5.34-2.04 2.64-4.74 2.64-9.22L2.64-9.22 2.64-25.04Q2.64-29.98 5.44-32.78 8.24-35.58 13.18-35.58L13.18-35.58 26.36-35.58Q31.3-35.58 34.1-32.78 36.9-29.98 36.9-25.04L36.9-25.04 36.9-12.85 14.17-12.85 14.17-10.21Q14.17-9.22 14.83-8.57 15.48-7.91 16.47-7.91L16.47-7.91Q23-7.91 35.58-8.9L35.58-8.9ZM64.57-26.03L62.27-26.03Q58.78-26.03 54.36-24.71L54.36-24.71 54.36 0 42.83 0 42.83-34.92 53.04-34.92 53.7-31.63Q56.8-33.67 60.06-34.63 63.32-35.58 65.56-35.58L65.56-35.58 68.53-35.58Q73.01-35.58 75.71-32.88 78.41-30.18 78.41-25.7L78.41-25.7 78.41 0 66.88 0 66.88-23.72Q66.88-24.71 66.22-25.37 65.56-26.03 64.57-26.03L64.57-26.03Z" transform="translate(-2.640000104904175, 35.58000183105469)"></path></g></g></g> </g><defs v-gra="od"></defs></g></svg>