<svg xmlns="http://www.w3.org/2000/svg" xmlns:xlink="http://www.w3.org/1999/xlink" version="1.0" x="0" y="0" width="2400" height="1112.5483104869952" viewBox="52.929731903076174 70.73069625854492 234.14053619384765 108.53860748291015" preserveAspectRatio="xMidYMid meet" color-interpolation-filters="sRGB"><g><defs><linearGradient id="92" x1="0%" y1="0%" x2="100%" y2="0%"><stop offset="0%" stop-color="#fa71cd"></stop> <stop offset="100%" stop-color="#9b59b6"></stop></linearGradient><linearGradient id="93" x1="0%" y1="0%" x2="100%" y2="0%"><stop offset="0%" stop-color="#f9d423"></stop> <stop offset="100%" stop-color="#f83600"></stop></linearGradient><linearGradient id="94" x1="0%" y1="0%" x2="100%" y2="0%"><stop offset="0%" stop-color="#0064d2"></stop> <stop offset="100%" stop-color="#1cb0f6"></stop></linearGradient><linearGradient id="95" x1="0%" y1="0%" x2="100%" y2="0%"><stop offset="0%" stop-color="#f00978"></stop> <stop offset="100%" stop-color="#3f51b1"></stop></linearGradient><linearGradient id="96" x1="0%" y1="0%" x2="100%" y2="0%"><stop offset="0%" stop-color="#7873f5"></stop> <stop offset="100%" stop-color="#ec77ab"></stop></linearGradient><linearGradient id="97" x1="0%" y1="0%" x2="100%" y2="0%"><stop offset="0%" stop-color="#f9d423"></stop> <stop offset="100%" stop-color="#e14fad"></stop></linearGradient><linearGradient id="98" x1="0%" y1="0%" x2="100%" y2="0%"><stop offset="0%" stop-color="#009efd"></stop> <stop offset="100%" stop-color="#2af598"></stop></linearGradient><linearGradient id="99" x1="0%" y1="0%" x2="100%" y2="0%"><stop offset="0%" stop-color="#ffcc00"></stop> <stop offset="100%" stop-color="#00b140"></stop></linearGradient><linearGradient id="100" x1="0%" y1="0%" x2="100%" y2="0%"><stop offset="0%" stop-color="#d51007"></stop> <stop offset="100%" stop-color="#ff8177"></stop></linearGradient><linearGradient id="102" x1="0%" y1="0%" x2="100%" y2="0%"><stop offset="0%" stop-color="#a2b6df"></stop> <stop offset="100%" stop-color="#0c3483"></stop></linearGradient><linearGradient id="103" x1="0%" y1="0%" x2="100%" y2="0%"><stop offset="0%" stop-color="#7ac5d8"></stop> <stop offset="100%" stop-color="#eea2a2"></stop></linearGradient><linearGradient id="104" x1="0%" y1="0%" x2="100%" y2="0%"><stop offset="0%" stop-color="#00ecbc"></stop> <stop offset="100%" stop-color="#007adf"></stop></linearGradient><linearGradient id="105" x1="0%" y1="0%" x2="100%" y2="0%"><stop offset="0%" stop-color="#b88746"></stop> <stop offset="100%" stop-color="#fdf5a6"></stop></linearGradient></defs><g fill="#1891db" class="iconblsvg-g iconsvg" transform="translate(55.22522735595703,73.02619171142578)"><g class="tp-name" transform="translate(0,0)"><g transform="translate(0, 39.53031054947728)"><g transform="scale(1)"><path d="M34.26-9.22L34.26-0.66Q21.94 0.66 12.52 0.66L12.52 0.66Q8.04 0.66 5.34-2.04 2.64-4.74 2.64-9.22L2.64-9.22 2.64-24.38Q2.64-29.32 5.44-32.12 8.24-34.92 13.18-34.92L13.18-34.92 34.26-34.92 34.26-26.03 16.8-26.03Q14.17-26.03 14.17-23.39L14.17-23.39 14.17-10.54Q14.17-9.55 14.83-8.9 15.48-8.24 16.47-8.24L16.47-8.24Q22.4-8.24 34.26-9.22L34.26-9.22ZM55.35-11.2L62.93-34.92 75.12-34.92 61.94 0 48.76 0 35.58-34.92 47.77-34.92 55.35-11.2Z" transform="translate(-2.640000104904175, 35.58000183105469)"></path></g></g> <g transform="translate(72.4800033569336, 0)"><g><g fill="#1891db" class="imagesvg"><rect fill="#1891db" fill-opacity="0" stroke-width="2" x="0" y="0" width="81.29953488372094" height="81.29953488372094" class="image-rect"></rect> <svg viewBox="0 0 60 64.09160827209024" x="0" y="0" width="81.29953488372094" height="81.29953488372094" class="image-svg-svg bn" style="overflow: visible;"><g hollow-target="iconBnFill" mask="url(#6f1e583b-e750-4488-a0bd-62109fa8c387)"><g><svg xmlns="http://www.w3.org/2000/svg" viewBox="0 0 132.86 141.92" style="overflow: visible;" width="60" height="64.09160827209024" x="0" y="0" filtersec="colorsf5992811989"><g transform="scale(1, 1) skewX(0)"><path fill="#cfe2f3" opacity=".6" d="M19 0h113.86v113.86H19z"></path><path fill="#cfe2f3" opacity=".8" d="M9.73 18.53h113.86v113.86H9.73z"></path><path fill="#1891db" d="M.93 123.13H0V8.8h114.32v.93H.93v113.4zM132.84 141.92H18.52V141h113.39V27.6h.93v114.32z"></path></g></svg></g> <g filter="url(#colors4238551357)"><svg xmlns="http://www.w3.org/2000/svg" xmlns:xlink="http://www.w3.org/1999/xlink" viewBox="0.004374980926513672 0.004062652587890625 50.40999984741211 50.40999984741211" width="40" height="42.72774" x="10" y="10.681934136045122" class="image-svg-letter"><path transform="translate(-3.515625 50.4140625)" d="M3.52-50.41L3.52-47.18L37.44-47.18L3.69-13.46L3.69 0L53.93 0L53.93-3.23L20.29-3.23L53.93-36.88L53.93-50.41ZM6.93-12.13L41.98-47.18L48.55-47.18L6.93-5.59ZM50.70-44.79L50.70-38.21L15.71-3.23L9.14-3.23Z"></path></svg></g></g><mask id="6f1e583b-e750-4488-a0bd-62109fa8c387"><g fill="white"><svg xmlns="http://www.w3.org/2000/svg" viewBox="0 0 132.86 141.92" style="overflow: visible;" width="60" height="64.09160827209024" x="0" y="0" filtersec="colorsf5992811989"><g transform="scale(1, 1) skewX(0)"><path d="M19 0h113.86v113.86H19z"></path><path d="M9.73 18.53h113.86v113.86H9.73z"></path><path d="M.93 123.13H0V8.8h114.32v.93H.93v113.4zM132.84 141.92H18.52V141h113.39V27.6h.93v114.32z"></path></g></svg></g> <g fill="black"><svg xmlns="http://www.w3.org/2000/svg" xmlns:xlink="http://www.w3.org/1999/xlink" viewBox="0.004374980926513672 0.004062652587890625 50.40999984741211 50.40999984741211" width="40" height="42.72774" x="10" y="10.681934136045122" class="image-svg-letter"><path transform="translate(-3.515625 50.4140625)" d="M3.52-50.41L3.52-47.18L37.44-47.18L3.69-13.46L3.69 0L53.93 0L53.93-3.23L20.29-3.23L53.93-36.88L53.93-50.41ZM6.93-12.13L41.98-47.18L48.55-47.18L6.93-5.59ZM50.70-44.79L50.70-38.21L15.71-3.23L9.14-3.23Z"></path></svg></g></mask></svg> <defs><filter id="colors4238551357"><feColorMatrix type="matrix" values="0 0 0 0 0.09375  0 0 0 0 0.56640625  0 0 0 0 0.85546875  0 0 0 1 0" class="icon-feColorMatrix "></feColorMatrix></filter> <filter id="colorsf5992811989"><feColorMatrix type="matrix" values="0 0 0 0 0.99609375  0 0 0 0 0.99609375  0 0 0 0 0.99609375  0 0 0 1 0" class="icon-fecolormatrix"></feColorMatrix></filter> <filter id="colorsb6473329627"><feColorMatrix type="matrix" values="0 0 0 0 0  0 0 0 0 0  0 0 0 0 0  0 0 0 1 0" class="icon-fecolormatrix"></feColorMatrix></filter></defs></g></g></g> <g fill="#cfe2f3" transform="translate(153.779541015625, 39.53031054947728)"><g transform="scale(1)"><path d="M22.73-27.34L16.8-27.34Q14.17-27.34 14.17-24.71L14.17-24.71 14.17-21.09 25.37-21.09 25.37-24.71Q25.37-27.34 22.73-27.34L22.73-27.34ZM35.58-8.9L35.58-0.66Q22.86 0.66 12.52 0.66L12.52 0.66Q8.04 0.66 5.34-2.04 2.64-4.74 2.64-9.22L2.64-9.22 2.64-25.04Q2.64-29.98 5.44-32.78 8.24-35.58 13.18-35.58L13.18-35.58 26.36-35.58Q31.3-35.58 34.1-32.78 36.9-29.98 36.9-25.04L36.9-25.04 36.9-12.85 14.17-12.85 14.17-10.21Q14.17-9.22 14.83-8.57 15.48-7.91 16.47-7.91L16.47-7.91Q23-7.91 35.58-8.9L35.58-8.9ZM64.57-26.03L62.27-26.03Q58.78-26.03 54.36-24.71L54.36-24.71 54.36 0 42.83 0 42.83-34.92 53.04-34.92 53.7-31.63Q56.8-33.67 60.06-34.63 63.32-35.58 65.56-35.58L65.56-35.58 68.53-35.58Q73.01-35.58 75.71-32.88 78.41-30.18 78.41-25.7L78.41-25.7 78.41 0 66.88 0 66.88-23.72Q66.88-24.71 66.22-25.37 65.56-26.03 64.57-26.03L64.57-26.03Z" transform="translate(-2.640000104904175, 35.58000183105469)"></path></g></g></g> <g fill-rule="" class="tp-slogan iconsvg-slogansvg" fill="#cfe2f3" transform="translate(4.999992370605469,87.2995376586914)"><rect x="0" height="1" y="7.821201324462891" width="17.215370178222656"></rect> <rect height="1" y="7.821201324462891" width="17.215370178222656" x="202.33417510986328"></rect> <g transform="translate(20.215370178222656,0)"><g transform="scale(1.4200000000000002)"><path d="M2.02 0L1.06 0L1.06-8.94L2.02-8.94L2.02 0ZM4.90 0L4.00 0L4.00-6.43L4.90-6.43L4.90-5.18L4.69-5.23Q4.93-5.86 5.48-6.22Q6.02-6.58 6.74-6.58L6.74-6.58Q7.43-6.58 7.97-6.26Q8.52-5.95 8.84-5.41Q9.16-4.86 9.16-4.18L9.16-4.18L9.16 0L8.26 0L8.26-3.83Q8.26-4.42 8.05-4.82Q7.84-5.23 7.46-5.45Q7.08-5.68 6.59-5.68L6.59-5.68Q6.10-5.68 5.71-5.45Q5.33-5.23 5.11-4.82Q4.90-4.40 4.90-3.83L4.90-3.83L4.90 0ZM13.33 0.07L13.33 0.07Q12.47 0.07 12-0.43Q11.53-0.94 11.53-1.87L11.53-1.87L11.53-5.53L10.34-5.53L10.34-6.43L10.64-6.43Q11.05-6.43 11.29-6.70Q11.53-6.97 11.53-7.38L11.53-7.38L11.53-7.92L12.43-7.92L12.43-6.43L13.85-6.43L13.85-5.53L12.43-5.53L12.43-1.87Q12.43-1.55 12.53-1.30Q12.62-1.06 12.86-0.91Q13.09-0.77 13.49-0.77L13.49-0.77Q13.58-0.77 13.72-0.78Q13.85-0.79 13.94-0.80L13.94-0.80L13.94 0Q13.80 0.04 13.62 0.05Q13.44 0.07 13.33 0.07ZM18.22 0.14L18.22 0.14Q17.32 0.14 16.59-0.29Q15.86-0.73 15.44-1.50Q15.02-2.27 15.02-3.24L15.02-3.24Q15.02-4.21 15.43-4.96Q15.84-5.71 16.54-6.14Q17.24-6.58 18.12-6.58L18.12-6.58Q18.82-6.58 19.36-6.32Q19.91-6.06 20.29-5.62Q20.68-5.18 20.88-4.64Q21.08-4.09 21.08-3.52L21.08-3.52Q21.08-3.40 21.07-3.25Q21.06-3.10 21.04-2.94L21.04-2.94L15.60-2.94L15.60-3.78L20.52-3.78L20.09-3.42Q20.20-4.08 19.94-4.60Q19.68-5.12 19.20-5.43Q18.72-5.74 18.12-5.74L18.12-5.74Q17.52-5.74 17.01-5.42Q16.50-5.11 16.21-4.55Q15.92-4.00 15.98-3.23L15.98-3.23Q15.92-2.46 16.23-1.89Q16.54-1.32 17.07-1.01Q17.60-0.70 18.22-0.70L18.22-0.70Q18.92-0.70 19.40-1.03Q19.88-1.37 20.18-1.87L20.18-1.87L20.95-1.46Q20.76-1.03 20.36-0.67Q19.97-0.30 19.42-0.08Q18.88 0.14 18.22 0.14ZM23.57 0L22.67 0L22.67-9.08L23.57-9.08L23.57 0ZM26.32 0L25.42 0L25.42-9.08L26.32-9.08L26.32 0ZM29.06 0L28.16 0L28.16-6.43L29.06-6.43L29.06 0ZM29.06-7.62L28.16-7.62L28.16-8.94L29.06-8.94L29.06-7.62ZM33.96 2.64L33.96 2.64Q33.30 2.64 32.74 2.44Q32.18 2.23 31.78 1.88Q31.38 1.52 31.16 1.06L31.16 1.06L31.99 0.61Q32.18 1.07 32.68 1.40Q33.17 1.74 33.94 1.74L33.94 1.74Q34.52 1.74 35.02 1.51Q35.51 1.28 35.81 0.84Q36.11 0.40 36.11-0.25L36.11-0.25L36.11-1.68L36.25-1.55Q35.92-0.85 35.26-0.47Q34.60-0.10 33.82-0.10L33.82-0.10Q32.92-0.10 32.20-0.53Q31.48-0.96 31.06-1.70Q30.65-2.44 30.65-3.34L30.65-3.34Q30.65-4.25 31.06-4.98Q31.48-5.71 32.19-6.14Q32.90-6.58 33.82-6.58L33.82-6.58Q34.60-6.58 35.24-6.22Q35.88-5.86 36.25-5.24L36.25-5.24L36.11-4.99L36.11-6.43L37.01-6.43L37.01-0.25Q37.01 0.58 36.62 1.23Q36.23 1.88 35.54 2.26Q34.85 2.64 33.96 2.64ZM33.86-1.00L33.86-1.00Q34.49-1.00 34.99-1.31Q35.50-1.63 35.80-2.17Q36.11-2.70 36.11-3.34L36.11-3.34Q36.11-3.97 35.80-4.51Q35.50-5.04 34.99-5.36Q34.49-5.68 33.86-5.68L33.86-5.68Q33.23-5.68 32.71-5.36Q32.20-5.04 31.90-4.51Q31.61-3.98 31.61-3.34L31.61-3.34Q31.61-2.70 31.90-2.17Q32.20-1.63 32.71-1.31Q33.22-1.00 33.86-1.00ZM41.78 0.14L41.78 0.14Q40.88 0.14 40.16-0.29Q39.43-0.73 39.01-1.50Q38.59-2.27 38.59-3.24L38.59-3.24Q38.59-4.21 39-4.96Q39.41-5.71 40.11-6.14Q40.81-6.58 41.69-6.58L41.69-6.58Q42.38-6.58 42.93-6.32Q43.48-6.06 43.86-5.62Q44.24-5.18 44.45-4.64Q44.65-4.09 44.65-3.52L44.65-3.52Q44.65-3.40 44.64-3.25Q44.63-3.10 44.60-2.94L44.60-2.94L39.17-2.94L39.17-3.78L44.09-3.78L43.66-3.42Q43.76-4.08 43.51-4.60Q43.25-5.12 42.77-5.43Q42.29-5.74 41.69-5.74L41.69-5.74Q41.09-5.74 40.58-5.42Q40.07-5.11 39.78-4.55Q39.49-4.00 39.55-3.23L39.55-3.23Q39.49-2.46 39.80-1.89Q40.10-1.32 40.64-1.01Q41.17-0.70 41.78-0.70L41.78-0.70Q42.49-0.70 42.97-1.03Q43.45-1.37 43.75-1.87L43.75-1.87L44.52-1.46Q44.33-1.03 43.93-0.67Q43.54-0.30 42.99-0.08Q42.44 0.14 41.78 0.14ZM47.14 0L46.24 0L46.24-6.43L47.14-6.43L47.14-5.18L46.93-5.23Q47.17-5.86 47.72-6.22Q48.26-6.58 48.98-6.58L48.98-6.58Q49.67-6.58 50.21-6.26Q50.76-5.95 51.08-5.41Q51.40-4.86 51.40-4.18L51.40-4.18L51.40 0L50.50 0L50.50-3.83Q50.50-4.42 50.29-4.82Q50.08-5.23 49.70-5.45Q49.32-5.68 48.83-5.68L48.83-5.68Q48.34-5.68 47.95-5.45Q47.57-5.23 47.35-4.82Q47.14-4.40 47.14-3.83L47.14-3.83L47.14 0ZM55.57 0.07L55.57 0.07Q54.71 0.07 54.24-0.43Q53.77-0.94 53.77-1.87L53.77-1.87L53.77-5.53L52.58-5.53L52.58-6.43L52.88-6.43Q53.29-6.43 53.53-6.70Q53.77-6.97 53.77-7.38L53.77-7.38L53.77-7.92L54.67-7.92L54.67-6.43L56.09-6.43L56.09-5.53L54.67-5.53L54.67-1.87Q54.67-1.55 54.77-1.30Q54.86-1.06 55.10-0.91Q55.33-0.77 55.73-0.77L55.73-0.77Q55.82-0.77 55.96-0.78Q56.09-0.79 56.18-0.80L56.18-0.80L56.18 0Q56.04 0.04 55.86 0.05Q55.68 0.07 55.57 0.07ZM60.90 0L59.94 0L59.94-8.94L60.90-8.94L60.90-4.92L65.70-4.92L65.70-8.94L66.66-8.94L66.66 0L65.70 0L65.70-4.02L60.90-4.02L60.90 0ZM69.54 0L68.64 0L68.64-6.43L69.54-6.43L69.54 0ZM69.54-7.62L68.64-7.62L68.64-8.94L69.54-8.94L69.54-7.62ZM72.29 0L71.39 0L71.39-6.43L72.29-6.43L72.29-5.38L72.17-5.53Q72.40-5.99 72.86-6.25Q73.32-6.52 73.98-6.52L73.98-6.52L74.39-6.52L74.39-5.62L73.82-5.62Q73.13-5.62 72.71-5.18Q72.29-4.75 72.29-3.96L72.29-3.96L72.29 0ZM76.34 0L75.44 0L75.44-6.43L76.34-6.43L76.34 0ZM76.34-7.62L75.44-7.62L75.44-8.94L76.34-8.94L76.34-7.62ZM79.09 0L78.19 0L78.19-6.43L79.09-6.43L79.09-5.18L78.89-5.23Q79.13-5.86 79.67-6.22Q80.22-6.58 80.94-6.58L80.94-6.58Q81.62-6.58 82.17-6.26Q82.72-5.95 83.03-5.41Q83.35-4.86 83.35-4.18L83.35-4.18L83.35 0L82.45 0L82.45-3.83Q82.45-4.42 82.24-4.82Q82.03-5.23 81.65-5.45Q81.28-5.68 80.78-5.68L80.78-5.68Q80.29-5.68 79.91-5.45Q79.52-5.23 79.31-4.82Q79.09-4.40 79.09-3.83L79.09-3.83L79.09 0ZM88.12 2.64L88.12 2.64Q87.46 2.64 86.90 2.44Q86.34 2.23 85.94 1.88Q85.54 1.52 85.32 1.06L85.32 1.06L86.15 0.61Q86.34 1.07 86.83 1.40Q87.32 1.74 88.09 1.74L88.09 1.74Q88.68 1.74 89.17 1.51Q89.66 1.28 89.96 0.84Q90.26 0.40 90.26-0.25L90.26-0.25L90.26-1.68L90.41-1.55Q90.07-0.85 89.41-0.47Q88.75-0.10 87.97-0.10L87.97-0.10Q87.07-0.10 86.35-0.53Q85.63-0.96 85.22-1.70Q84.80-2.44 84.80-3.34L84.80-3.34Q84.80-4.25 85.22-4.98Q85.63-5.71 86.35-6.14Q87.06-6.58 87.97-6.58L87.97-6.58Q88.75-6.58 89.39-6.22Q90.04-5.86 90.41-5.24L90.41-5.24L90.26-4.99L90.26-6.43L91.16-6.43L91.16-0.25Q91.16 0.58 90.77 1.23Q90.38 1.88 89.69 2.26Q89.00 2.64 88.12 2.64ZM88.02-1.00L88.02-1.00Q88.64-1.00 89.15-1.31Q89.65-1.63 89.96-2.17Q90.26-2.70 90.26-3.34L90.26-3.34Q90.26-3.97 89.96-4.51Q89.65-5.04 89.15-5.36Q88.64-5.68 88.02-5.68L88.02-5.68Q87.38-5.68 86.87-5.36Q86.35-5.04 86.06-4.51Q85.76-3.98 85.76-3.34L85.76-3.34Q85.76-2.70 86.06-2.17Q86.35-1.63 86.86-1.31Q87.37-1.00 88.02-1.00ZM100.94 0L95.18 0L95.18-8.94L100.94-8.94L100.94-8.04L96.14-8.04L96.14-4.93L100.70-4.93L100.70-4.03L96.14-4.03L96.14-0.90L100.94-0.90L100.94 0ZM103.30 0L102.40 0L102.40-6.43L103.30-6.43L103.30-5.18L103.09-5.23Q103.33-5.86 103.88-6.22Q104.42-6.58 105.14-6.58L105.14-6.58Q105.83-6.58 106.37-6.26Q106.92-5.95 107.24-5.41Q107.56-4.86 107.56-4.18L107.56-4.18L107.56 0L106.66 0L106.66-3.83Q106.66-4.42 106.45-4.82Q106.24-5.23 105.86-5.45Q105.48-5.68 104.99-5.68L104.99-5.68Q104.50-5.68 104.11-5.45Q103.73-5.23 103.51-4.82Q103.30-4.40 103.30-3.83L103.30-3.83L103.30 0ZM113.47 0L108.61 0L108.61-0.78L112.49-5.88L112.66-5.53L108.82-5.53L108.82-6.43L113.45-6.43L113.45-5.65L109.58-0.55L109.42-0.90L113.47-0.90L113.47 0ZM117.59 0.14L117.59 0.14Q116.69 0.14 115.96-0.29Q115.24-0.73 114.82-1.50Q114.40-2.27 114.40-3.24L114.40-3.24Q114.40-4.21 114.80-4.96Q115.21-5.71 115.91-6.14Q116.62-6.58 117.49-6.58L117.49-6.58Q118.19-6.58 118.73-6.32Q119.28-6.06 119.66-5.62Q120.05-5.18 120.25-4.64Q120.46-4.09 120.46-3.52L120.46-3.52Q120.46-3.40 120.44-3.25Q120.43-3.10 120.41-2.94L120.41-2.94L114.97-2.94L114.97-3.78L119.89-3.78L119.46-3.42Q119.57-4.08 119.31-4.60Q119.05-5.12 118.57-5.43Q118.09-5.74 117.49-5.74L117.49-5.74Q116.89-5.74 116.38-5.42Q115.87-5.11 115.58-4.55Q115.30-4.00 115.36-3.23L115.36-3.23Q115.30-2.46 115.60-1.89Q115.91-1.32 116.44-1.01Q116.98-0.70 117.59-0.70L117.59-0.70Q118.30-0.70 118.78-1.03Q119.26-1.37 119.56-1.87L119.56-1.87L120.32-1.46Q120.13-1.03 119.74-0.67Q119.34-0.30 118.79-0.08Q118.25 0.14 117.59 0.14ZM122.94 0L122.04 0L122.04-6.43L122.94-6.43L122.94-5.18L122.74-5.23Q122.98-5.86 123.52-6.22Q124.07-6.58 124.79-6.58L124.79-6.58Q125.47-6.58 126.02-6.26Q126.56-5.95 126.88-5.41Q127.20-4.86 127.20-4.18L127.20-4.18L127.20 0L126.30 0L126.30-3.83Q126.30-4.42 126.09-4.82Q125.88-5.23 125.50-5.45Q125.12-5.68 124.63-5.68L124.63-5.68Q124.14-5.68 123.76-5.45Q123.37-5.23 123.16-4.82Q122.94-4.40 122.94-3.83L122.94-3.83L122.94 0Z" transform="translate(-1.056, 9.084)"></path></g></g></g></g><defs v-gra="od"></defs></g></svg>